<?xml version="1.0" encoding="utf-8"?>
<!-- Generator: Adobe Illustrator 26.2.1, SVG Export Plug-In . SVG Version: 6.00 Build 0)  -->
<svg version="1.1" id="Laag_1" xmlns="http://www.w3.org/2000/svg" xmlns:xlink="http://www.w3.org/1999/xlink" x="0px" y="0px"
	 viewBox="0 0 1920 683" style="enable-background:new 0 0 1920 683;" xml:space="preserve">
<style type="text/css">
	.st0{fill:#FFFFFF;}
</style>
<g>
	<path class="st0" d="M703.62,209.17c0-80.79-65.49-146.28-146.28-146.28c-80.79,0-146.28,65.49-146.28,146.28
		c0,17.28,3.02,33.85,8.52,49.24h-0.02l0.18,0.46c0.4,1.1,0.83,2.19,1.26,3.28l136.34,354.93l136.75-355.95
		c0.26-0.68,0.53-1.34,0.78-2.03l0.13-0.33h-0.01C700.56,243.28,703.62,226.58,703.62,209.17z M470.41,222.17
		c7.36,4.2,7.55,53.26-8.49,41.34c-16.04-11.91-18.45,3.12-18.45,3.12c-8.73-17.27-13.66-36.8-13.66-57.47
		c0-43.78,22.07-82.41,55.69-105.37c7.39,1.24,23.8,5.89,23.8,22.73c0,21.72-16.12,26.63-4.2,37.84
		c11.91,11.21,3.84,33.29-9.47,26.28c-13.31-7.01-23.82-37.14-30.47-12.61C458.5,202.55,463.05,217.97,470.41,222.17z
		 M557.34,336.69c-26.49,0-51.09-8.08-71.48-21.9c0,0,2.53-42.34,21.82-28.77c19.29,13.57,25.36,0,30-6.43
		c4.64-6.43,17.16-1.79,19.65,12.14c2.49,13.93,23.92,19.29,31.78,16.07c7.86-3.21,30.35-20.43,45,3.18
		C612.77,327.12,586.17,336.69,557.34,336.69z M660.21,192.69c-11.07-24.38-16.79-17.76-40.36-3.83
		c-23.57,13.93-29.29-13.57-21.79-27.15c7.5-13.57-2.86-20.36-26.55-16.43c-23.69,3.93,4.76-22.5,0.47-36.79
		c-4.29-14.29,21.96-21.51,21.96-21.51c48.13,14.39,84.31,56.44,90.11,107.69C677.01,201.6,666.87,207.36,660.21,192.69z"/>
	<path class="st0" d="M213.98,207.15v46.34c0,19.7-3.83,37.07-11.49,52.09s-18.52,26.64-32.57,34.85
		c-14.05,8.21-30.32,12.32-48.8,12.32c-18.73,0-35.18-3.86-49.35-11.59c-14.17-7.72-25.15-18.64-32.93-32.75
		c-7.79-14.11-11.68-30.47-11.68-49.08v-78.27c0-19.7,3.83-37.04,11.49-52c7.66-14.96,18.52-26.55,32.57-34.76
		s30.32-12.31,48.8-12.31c15.2,0,29.22,3.26,42.06,9.76c12.83,6.51,23.56,15.72,32.2,27.64c8.64,11.92,14.47,25.72,17.52,41.41
		h-40.32c-2.19-8.88-5.9-16.51-11.13-22.9c-5.23-6.38-11.37-11.25-18.43-14.59c-7.06-3.35-14.35-5.02-21.89-5.02
		c-10.95,0-20.56,2.62-28.83,7.84c-8.27,5.23-14.66,12.56-19.16,21.98c-4.5,9.43-6.75,20.41-6.75,32.93v78.27
		c0,11.43,2.31,21.44,6.93,30.01c4.62,8.57,11.16,15.24,19.61,19.98c8.45,4.74,18.21,7.12,29.28,7.12c10.95,0,20.55-2.46,28.83-7.39
		c8.27-4.92,14.65-12.07,19.16-21.44c4.5-9.37,6.75-20.5,6.75-33.39v-11.49h-53.82v-35.58H213.98z"/>
	<polygon class="st0" points="410.97,120.12 410.97,84.73 277.78,84.73 258.62,84.73 240.56,84.73 240.56,350.01 258.62,350.01 
		277.78,350.01 410.97,350.01 410.97,314.61 277.78,314.61 277.78,235.98 390.9,235.98 390.9,200.58 277.78,200.58 277.78,120.12 	
		"/>
	<path class="st0" d="M884.49,474.52l-0.2,46.34c-0.09,19.7-4,37.07-11.73,52.09c-7.73,15.02-18.63,26.64-32.72,34.85
		c-14.08,8.21-30.37,12.31-48.86,12.31c-18.73,0-35.17-3.86-49.3-11.59c-14.14-7.72-25.07-18.64-32.78-32.75
		c-7.73-14.11-11.54-30.47-11.46-49.08l0.34-78.27c0.09-19.7,4-37.04,11.73-52c7.73-14.96,18.63-26.55,32.72-34.76
		c14.08-8.21,30.37-12.31,48.86-12.31c15.2,0,29.21,3.25,42.01,9.76c12.8,6.51,23.5,15.72,32.08,27.64
		c8.58,11.92,14.36,25.73,17.33,41.41h-40.32c-2.15-8.88-5.83-16.51-11.03-22.9c-5.21-6.39-11.32-11.25-18.36-14.59
		c-7.04-3.35-14.34-5.02-21.87-5.02c-10.95,0-20.57,2.62-28.86,7.85c-8.29,5.23-14.71,12.56-19.25,21.98
		c-4.54,9.43-6.84,20.41-6.9,32.93l-0.34,78.27c-0.05,11.43,2.21,21.44,6.8,30.01c4.58,8.57,11.09,15.23,19.53,19.98
		c8.43,4.75,18.18,7.12,29.25,7.12c10.95,0,20.56-2.46,28.86-7.39c8.29-4.93,14.71-12.07,19.25-21.44
		c4.54-9.36,6.84-20.49,6.9-33.39l0.05-11.5h-53.82l0.16-35.58H884.49z"/>
	<path class="st0" d="M911.6,352.1h37.22l-1.17,265.28h-37.22L911.6,352.1z M929.2,581.98H1081l-0.16,35.39h-151.8L929.2,581.98z"/>
	<path class="st0" d="M1131.5,607.98c-14.08-8.09-24.94-19.52-32.6-34.3s-11.45-31.9-11.36-51.36l0.33-75.17
		c0.09-19.46,4.02-36.58,11.81-51.36c7.79-14.78,18.76-26.21,32.9-34.3c14.14-8.09,30.46-12.13,48.95-12.13
		c18.49,0,34.77,4.04,48.85,12.13c14.07,8.09,24.94,19.52,32.6,34.3c7.66,14.78,11.44,31.9,11.36,51.36l-0.33,75.17
		c-0.09,19.46-4.02,36.58-11.81,51.36c-7.79,14.78-18.76,26.21-32.9,34.3c-14.15,8.09-30.46,12.13-48.95,12.13
		C1161.85,620.11,1145.57,616.07,1131.5,607.98z M1209.45,576.05c8.35-4.92,14.83-11.92,19.43-20.98c4.6-9.06,6.93-19.55,6.98-31.47
		l0.34-77.72c0.05-11.92-2.18-22.41-6.7-31.47c-4.52-9.06-10.94-16.05-19.25-20.98c-8.31-4.93-17.94-7.39-28.89-7.39
		c-10.94,0-20.6,2.46-28.95,7.39c-8.35,4.92-14.83,11.92-19.43,20.98c-4.61,9.06-6.93,19.55-6.98,31.47l-0.34,77.72
		c-0.05,11.92,2.18,22.41,6.7,31.47c4.52,9.06,10.94,16.05,19.24,20.98c8.31,4.93,17.94,7.39,28.89,7.39
		C1191.44,583.44,1201.09,580.98,1209.45,576.05z"/>
	<path class="st0" d="M1301.63,352.1h37.04l-1.17,265.28h-37.04L1301.63,352.1z M1322.51,582.89h71.89
		c18.85,0,32.61-3.59,41.28-10.77c8.67-7.18,13.03-17.27,13.09-30.29l0-0.55c0.04-9-1.48-16.72-4.55-23.17
		c-3.07-6.44-7.95-11.4-14.62-14.87c-6.67-3.47-15.25-5.2-25.7-5.2h-81.01l0.15-33.57h81.01c13.74,0,24.13-3.22,31.15-9.67
		c7.02-6.44,10.56-15.99,10.62-28.64c0.06-13.25-3.79-23.17-11.55-29.74c-7.75-6.57-19.42-9.85-34.99-9.85h-75.9l0.15-34.48h82.65
		c17.15,0,31.49,2.92,43.02,8.76c11.53,5.84,20.13,14.11,25.8,24.81c5.67,10.71,8.47,23.48,8.4,38.31
		c-0.04,9.12-1.84,17.67-5.4,25.64c-3.56,7.97-8.97,14.78-16.24,20.43c-7.26,5.66-16.25,9.46-26.96,11.4
		c10.69,1.58,19.92,5.38,27.68,11.4c7.75,6.02,13.68,13.53,17.78,22.53c4.09,9,6.12,18.73,6.08,29.19l0,0.55
		c-0.06,14.36-3.29,27-9.66,37.95c-6.38,10.95-15.48,19.4-27.29,25.36c-11.83,5.96-25.58,8.94-41.28,8.94h-85.75L1322.51,582.89z"/>
	<path class="st0" d="M1582.3,352.1h31.75l96.62,265.28h-40.14l-72.58-214.01l-74.47,214.01h-40.14L1582.3,352.1z M1528.82,523.78
		h139.57l-0.16,35.39h-139.57L1528.82,523.78z"/>
	<path class="st0" d="M1723.45,352.1h37.22l-1.17,265.28h-37.22L1723.45,352.1z M1741.05,581.98h151.8l-0.16,35.39h-151.8
		L1741.05,581.98z"/>
</g>
</svg>
